<?xml version="1.0" encoding="UTF-8" standalone="no"?>
<svg
   xmlns:dc="http://purl.org/dc/elements/1.1/"
   xmlns:cc="http://creativecommons.org/ns#"
   xmlns:rdf="http://www.w3.org/1999/02/22-rdf-syntax-ns#"
   xmlns:svg="http://www.w3.org/2000/svg"
   xmlns="http://www.w3.org/2000/svg"
   xmlns:sodipodi="http://sodipodi.sourceforge.net/DTD/sodipodi-0.dtd"
   xmlns:inkscape="http://www.inkscape.org/namespaces/inkscape"
   version="1.1"
   id="svg2"
   xml:space="preserve"
   width="148.25049"
   height="148.27008"
   viewBox="0 0 148.25049 148.27008"
   sodipodi:docname="nuwc_svg_square_logo.svg"
   inkscape:version="1.0.2 (e86c870879, 2021-01-15)"><metadata
     id="metadata8"><rdf:RDF><cc:Work
         rdf:about=""><dc:format>image/svg+xml</dc:format><dc:type
           rdf:resource="http://purl.org/dc/dcmitype/StillImage" /><dc:title></dc:title></cc:Work></rdf:RDF></metadata><defs
     id="defs6"><clipPath
       clipPathUnits="userSpaceOnUse"
       id="clipPath28"><path
         d="M 0,141.73 H 708.661 V 0 H 0 Z"
         id="path26" /></clipPath></defs><sodipodi:namedview
     pagecolor="#ffffff"
     bordercolor="#ffffff"
     borderopacity="1"
     objecttolerance="10"
     gridtolerance="10"
     guidetolerance="10"
     inkscape:pageopacity="0"
     inkscape:pageshadow="2"
     inkscape:window-width="2560"
     inkscape:window-height="1385"
     id="namedview4"
     showgrid="false"
     inkscape:zoom="4.2386833"
     inkscape:cx="79.233843"
     inkscape:cy="86.02327"
     inkscape:window-x="1080"
     inkscape:window-y="507"
     inkscape:window-maximized="1"
     inkscape:current-layer="g10" /><g
     id="g10"
     inkscape:groupmode="layer"
     inkscape:label="2017-06-19 WC Logo Vector Red Black"
     transform="matrix(1.3333333,0,0,-1.3333333,0,187.93692)"><g
       id="g30"
       transform="matrix(1.0735714,0,0,0.95752562,70.066435,140.88223)"
       style="fill:#ffffff;stroke-width:0.99975;stroke-miterlimit:4;stroke-dasharray:none"><path
         d="m 0,0 h -4.5 v -40.75 c 0,0 1.875,-12 17.875,-12 16,0 18.25,12.5 18.25,12.5 V 0 h -4.25 L 27.25,-40.125 c 0,0 -3.125,-8.625 -13.687,-7.5 C 2.875,-48.25 0,-39.5 0,-39.5 Z"
         style="fill:#ffffff;fill-opacity:1;fill-rule:nonzero;stroke:none;stroke-width:0.99975;stroke-miterlimit:4;stroke-dasharray:none"
         id="path32" /></g><g
       id="g34"
       transform="matrix(0.91396918,0,0,0.96033152,0,80.339707)"
       style="fill:#ffffff;stroke-width:0.99975;stroke-miterlimit:4;stroke-dasharray:none"><path
         d="M 0,0 H 4.25 V -34.625 L 34.625,0 37.875,-1.625 3.375,-42.25 0,-40.75 Z"
         style="fill:#ffffff;fill-opacity:1;fill-rule:nonzero;stroke:none;stroke-width:0.99975;stroke-miterlimit:4;stroke-dasharray:none"
         id="path36" /></g><g
       id="g38"
       transform="matrix(0.91264143,0,0,0.95954566,39.154733,80.366165)"
       style="fill:#ffffff;stroke-width:0.99975;stroke-miterlimit:4;stroke-dasharray:none"><path
         d="m 0,0 -42.875,-50.5 3.125,-2.25 27.75,31.625 26.875,-31.625 2.375,1.875 V 0 H 13.5 V -43.625 L -8.75,-16.75 3.625,-1.375 Z"
         style="fill:#ffffff;fill-opacity:1;fill-rule:nonzero;stroke:none;stroke-width:0.99975;stroke-miterlimit:4;stroke-dasharray:none"
         id="path40" /></g><g
       id="g42"
       transform="matrix(0.8664405,0,0,0.95841458,89.851766,34.426233)"
       style="fill:#ffffff;stroke-width:0.99975;stroke-miterlimit:4;stroke-dasharray:none"><path
         d="m 0,0 c 0,0 -22.875,0.125 -25,21.5 0,19 17.625,22.375 25,22.375 12.75,0 24.625,-8.5 24.625,-8.5 l -3.125,5.25 c 0,0 -6.375,7.625 -21.688,7.25 C -15.5,47.5 -29.625,39 -29.625,22.135 -29.625,-4.75 0.5,-4 0.5,-4 0.5,-4 11,-4.125 19.625,1.5 l 5,7 c 0,0 -12,-8 -24.625,-8.5"
         style="fill:#ffffff;fill-opacity:1;fill-rule:nonzero;stroke:none;stroke-width:0.99975;stroke-miterlimit:4;stroke-dasharray:none"
         id="path44" /></g><g
       id="g14"
       transform="matrix(1.0449479,0,0,0.96586621,7.03141,91.46926)"
       style="fill:#ffffff;stroke-width:0.99975;stroke-miterlimit:4;stroke-dasharray:none"><path
         d="m 0,0 h 4 v 32.875 l 28.625,-34 3.75,2.875 L 0,45 Z"
         style="fill:#ffffff;fill-opacity:1;fill-rule:nonzero;stroke:none;stroke-width:0.99975;stroke-miterlimit:4;stroke-dasharray:none"
         id="path16" /></g><g
       id="g18"
       transform="matrix(1.0415829,0,0,0.9560698,49.788286,90.520013)"
       style="fill:#ffffff;stroke-width:0.99975;stroke-miterlimit:4;stroke-dasharray:none"><path
         d="M 0,0 2.625,1.5 V 52.75 H -1.5 V 9 L -38.625,52.75 -42.25,51 Z"
         style="fill:#ffffff;fill-opacity:1;fill-rule:nonzero;stroke:none;stroke-width:0.99975;stroke-miterlimit:4;stroke-dasharray:none"
         id="path20" /></g></g></svg>
